<svg width="42" height="42" viewBox="0 0 42 42" fill="none" xmlns="http://www.w3.org/2000/svg">
    <path d="M41 21C41 18.3736 40.4827 15.7728 39.4776 13.3463C38.4725 10.9198 36.9993 8.71504 35.1421 6.85786C33.285 5.00069 31.0802 3.5275 28.6537 2.52241C26.2272 1.51732 23.6264 1 21 1C18.3736 1 15.7728 1.51732 13.3463 2.52241C10.9198 3.5275 8.71503 5.00069 6.85786 6.85787C5.00069 8.71504 3.5275 10.9198 2.52241 13.3463C1.51731 15.7728 1 18.3736 1 21L21 21H41Z" fill="#EC1B23" stroke="black" stroke-width="2" />
    <path d="M41 21C41 23.6264 40.4827 26.2272 39.4776 28.6537C38.4725 31.0802 36.9993 33.285 35.1421 35.1421C33.285 36.9993 31.0802 38.4725 28.6537 39.4776C26.2272 40.4827 23.6264 41 21 41C18.3736 41 15.7728 40.4827 13.3463 39.4776C10.9198 38.4725 8.71503 36.9993 6.85786 35.1421C5.00069 33.285 3.5275 31.0802 2.52241 28.6537C1.51731 26.2272 1 23.6264 1 21L21 21H41Z" fill="#F2F2F2" stroke="black" stroke-width="2" />
    <circle cx="21" cy="21" r="4" fill="#F2F2F2" stroke="black" stroke-width="2" />
</svg>