<svg width="30" height="31" viewBox="0 0 30 31" fill="none" xmlns="http://www.w3.org/2000/svg">
    <path d="M19.375 18.1667H18.3875L18.0375 17.8292C19.5375 16.0792 20.3125 13.6917 19.8876 11.1542C19.3 7.67918 16.4 4.90418 12.9 4.47918C7.61255 3.82918 3.16255 8.27917 3.81255 13.5667C4.23755 17.0667 7.01255 19.9667 10.4875 20.5542C13.0251 20.9792 15.4125 20.2042 17.1625 18.7042L17.5 19.0542V20.0417L22.8125 25.3542C23.3251 25.8667 24.1625 25.8667 24.675 25.3542C25.1875 24.8417 25.1875 24.0042 24.675 23.4917L19.375 18.1667ZM11.875 18.1667C8.76255 18.1667 6.25005 15.6542 6.25005 12.5417C6.25005 9.42917 8.76255 6.91668 11.875 6.91668C14.9875 6.91668 17.5 9.42917 17.5 12.5417C17.5 15.6542 14.9875 18.1667 11.875 18.1667Z" fill="white" />
</svg>
    
    